# MagicaVoxel @ Ephtracy

# group
o 

# material
mtllib dagger_skeleton.mtl
usemtl palette

# normals
vn -1 0 0
vn 1 0 0
vn 0 0 1
vn 0 0 -1
vn 0 -1 0
vn 0 1 0

# texcoords
vt 0.533203 0.5
vt 0.970703 0.5
vt 0.974609 0.5
vt 0.978516 0.5

# verts
v -0.2 0.4 0.1
v -0.2 0.4 -1.49012e-008
v -0.2 0.6 0.1
v -0.2 0.6 -1.49012e-008
v -0.1 0 0.1
v -0.1 0 -1.49012e-008
v -0.1 0.4 0.1
v -0.1 0.4 -1.49012e-008
v -0.1 0.6 0.1
v -0.1 0.6 -1.49012e-008
v -0.1 1.4 0.1
v -0.1 1.4 -1.49012e-008
v 0 1.4 0.1
v 0 1.4 -1.49012e-008
v 0 1.5 0.1
v 0 1.5 -1.49012e-008
v 0.1 0 0.1
v 0.1 0 -1.49012e-008
v 0.1 0.4 0.1
v 0.1 0.4 -1.49012e-008
v 0.1 0.6 0.1
v 0.1 0.6 -1.49012e-008
v 0.1 1.5 0.1
v 0.1 1.5 -1.49012e-008
v 0.2 0.4 0.1
v 0.2 0.4 -1.49012e-008
v 0.2 0.6 0.1
v 0.2 0.6 -1.49012e-008
v -0.2 0.4 0.1
v -0.2 0.6 0.1
v -0.1 0 0.1
v -0.1 0.4 0.1
v -0.1 0.5 0.1
v -0.1 0.6 0.1
v -0.1 1.4 0.1
v 0 0.5 0.1
v 0 1.4 0.1
v 0 1.5 0.1
v 0.1 0 0.1
v 0.1 0.4 0.1
v 0.1 0.5 0.1
v 0.1 0.6 0.1
v 0.1 1.5 0.1
v 0.2 0.4 0.1
v 0.2 0.6 0.1
v -0.2 0.4 -1.49012e-008
v -0.2 0.6 -1.49012e-008
v -0.1 0 -1.49012e-008
v -0.1 0.4 -1.49012e-008
v -0.1 0.5 -1.49012e-008
v -0.1 0.6 -1.49012e-008
v -0.1 1.4 -1.49012e-008
v 0 0.5 -1.49012e-008
v 0 1.4 -1.49012e-008
v 0 1.5 -1.49012e-008
v 0.1 0 -1.49012e-008
v 0.1 0.4 -1.49012e-008
v 0.1 0.5 -1.49012e-008
v 0.1 0.6 -1.49012e-008
v 0.1 1.5 -1.49012e-008
v 0.2 0.4 -1.49012e-008
v 0.2 0.6 -1.49012e-008
v -0.1 0 0.1
v 0.1 0 0.1
v -0.1 0 -1.49012e-008
v 0.1 0 -1.49012e-008
v -0.2 0.4 0.1
v -0.1 0.4 0.1
v 0.1 0.4 0.1
v 0.2 0.4 0.1
v -0.2 0.4 -1.49012e-008
v -0.1 0.4 -1.49012e-008
v 0.1 0.4 -1.49012e-008
v 0.2 0.4 -1.49012e-008
v -0.2 0.6 0.1
v -0.1 0.6 0.1
v 0.1 0.6 0.1
v 0.2 0.6 0.1
v -0.2 0.6 -1.49012e-008
v -0.1 0.6 -1.49012e-008
v 0.1 0.6 -1.49012e-008
v 0.2 0.6 -1.49012e-008
v -0.1 1.4 0.1
v 0 1.4 0.1
v -0.1 1.4 -1.49012e-008
v 0 1.4 -1.49012e-008
v 0 1.5 0.1
v 0.1 1.5 0.1
v 0 1.5 -1.49012e-008
v 0.1 1.5 -1.49012e-008

# faces
f 3/3/1 2/3/1 1/3/1
f 4/3/1 2/3/1 3/3/1
f 7/1/1 6/1/1 5/1/1
f 8/1/1 6/1/1 7/1/1
f 11/4/1 10/4/1 9/4/1
f 12/4/1 10/4/1 11/4/1
f 15/2/1 14/2/1 13/2/1
f 16/2/1 14/2/1 15/2/1
f 17/1/2 18/1/2 19/1/2
f 19/1/2 18/1/2 20/1/2
f 21/2/2 22/2/2 23/2/2
f 23/2/2 22/2/2 24/2/2
f 25/3/2 26/3/2 27/3/2
f 27/3/2 26/3/2 28/3/2
f 32/3/3 30/3/3 29/3/3
f 33/3/3 30/3/3 32/3/3
f 34/3/3 30/3/3 33/3/3
f 36/3/3 33/3/3 32/3/3
f 36/4/3 35/4/3 34/4/3
f 36/4/3 34/4/3 33/4/3
f 37/4/3 35/4/3 36/4/3
f 39/1/3 32/1/3 31/1/3
f 40/3/3 36/3/3 32/3/3
f 40/1/3 32/1/3 39/1/3
f 41/2/3 38/2/3 37/2/3
f 41/3/3 36/3/3 40/3/3
f 41/2/3 37/2/3 36/2/3
f 42/2/3 38/2/3 41/2/3
f 43/2/3 38/2/3 42/2/3
f 44/3/3 41/3/3 40/3/3
f 44/3/3 42/3/3 41/3/3
f 45/3/3 42/3/3 44/3/3
f 46/3/4 47/3/4 49/3/4
f 49/3/4 47/3/4 50/3/4
f 50/3/4 47/3/4 51/3/4
f 49/3/4 50/3/4 53/3/4
f 51/4/4 52/4/4 53/4/4
f 50/4/4 51/4/4 53/4/4
f 53/4/4 52/4/4 54/4/4
f 48/1/4 49/1/4 56/1/4
f 49/3/4 53/3/4 57/3/4
f 56/1/4 49/1/4 57/1/4
f 54/2/4 55/2/4 58/2/4
f 57/3/4 53/3/4 58/3/4
f 53/2/4 54/2/4 58/2/4
f 58/2/4 55/2/4 59/2/4
f 59/2/4 55/2/4 60/2/4
f 57/3/4 58/3/4 61/3/4
f 58/3/4 59/3/4 61/3/4
f 61/3/4 59/3/4 62/3/4
f 65/1/5 64/1/5 63/1/5
f 66/1/5 64/1/5 65/1/5
f 71/3/5 68/3/5 67/3/5
f 72/3/5 68/3/5 71/3/5
f 73/3/5 70/3/5 69/3/5
f 74/3/5 70/3/5 73/3/5
f 75/3/6 76/3/6 79/3/6
f 79/3/6 76/3/6 80/3/6
f 77/3/6 78/3/6 81/3/6
f 81/3/6 78/3/6 82/3/6
f 83/4/6 84/4/6 85/4/6
f 85/4/6 84/4/6 86/4/6
f 87/2/6 88/2/6 89/2/6
f 89/2/6 88/2/6 90/2/6
